<svg width="1600" height="900" viewBox="0 0 1600 900" fill="none" xmlns="http://www.w3.org/2000/svg">
  <rect width="1600" height="900" fill="#07131C"/>
  <rect width="1600" height="900" fill="url(#glow)" fill-opacity="0.95"/>
  <circle cx="250" cy="170" r="220" fill="#0EA5E9" fill-opacity="0.18"/>
  <circle cx="1330" cy="700" r="280" fill="#22D3EE" fill-opacity="0.12"/>
  <path d="M150 700C296 630 411 566 522 465C632 366 760 248 969 170" stroke="#67E8F9" stroke-opacity="0.34" stroke-width="2"/>
  <path d="M1110 170C1228 227 1339 299 1450 417" stroke="#38BDF8" stroke-opacity="0.35" stroke-width="2"/>
  <path d="M188 256H473" stroke="#7EE7F2" stroke-opacity="0.32" stroke-width="12" stroke-linecap="round"/>
  <path d="M188 688H612" stroke="#7EE7F2" stroke-opacity="0.18" stroke-width="12" stroke-linecap="round"/>
  <path d="M1134 222H1376" stroke="#38BDF8" stroke-opacity="0.24" stroke-width="12" stroke-linecap="round"/>
  <circle cx="472" cy="256" r="18" fill="#A5F3FC"/>
  <circle cx="1134" cy="222" r="18" fill="#38BDF8"/>
  <circle cx="612" cy="688" r="18" fill="#67E8F9"/>
  <rect x="172" y="222" width="504" height="444" rx="44" fill="#081720" fill-opacity="0.7" stroke="#7EE7F2" stroke-opacity="0.18"/>
  <text x="230" y="392" fill="#F5FEFF" font-family="Arial, Helvetica, sans-serif" font-size="120" font-weight="700" letter-spacing="10">PAISL</text>
  <text x="232" y="468" fill="#A5F3FC" font-family="Arial, Helvetica, sans-serif" font-size="30" font-weight="600" letter-spacing="3">PHYSICAL AI SECURITY LAB</text>
  <text x="232" y="544" fill="#D7F8FF" font-family="Arial, Helvetica, sans-serif" font-size="28" font-weight="400">Embedded systems · AI · Security · Research</text>
  <text x="232" y="606" fill="#9FDDEA" font-family="Arial, Helvetica, sans-serif" font-size="24" font-weight="400">Study log, activity archive, and project notes for the club.</text>
  <rect x="996" y="298" width="308" height="192" rx="28" fill="#0A1D28" stroke="#67E8F9" stroke-opacity="0.18"/>
  <rect x="1040" y="342" width="220" height="20" rx="10" fill="#38BDF8" fill-opacity="0.25"/>
  <rect x="1040" y="390" width="156" height="20" rx="10" fill="#7EE7F2" fill-opacity="0.55"/>
  <rect x="1040" y="438" width="188" height="20" rx="10" fill="#7EE7F2" fill-opacity="0.18"/>
  <path d="M953 554L1087 420L1178 506L1337 350" stroke="#7EE7F2" stroke-width="12" stroke-linecap="round" stroke-linejoin="round"/>
  <circle cx="953" cy="554" r="16" fill="#A5F3FC"/>
  <circle cx="1087" cy="420" r="16" fill="#67E8F9"/>
  <circle cx="1178" cy="506" r="16" fill="#38BDF8"/>
  <circle cx="1337" cy="350" r="16" fill="#22D3EE"/>
  <defs>
    <radialGradient id="glow" cx="0" cy="0" r="1" gradientUnits="userSpaceOnUse" gradientTransform="translate(725 431) rotate(47.2301) scale(1184.96 1113.94)">
      <stop stop-color="#103549"/>
      <stop offset="1" stop-color="#07131C"/>
    </radialGradient>
  </defs>
</svg>
