<svg width="128" height="128" viewBox="0 0 128 128" fill="none" xmlns="http://www.w3.org/2000/svg">
  <rect width="128" height="128" rx="28" fill="#071A24"/>
  <rect x="12" y="12" width="104" height="104" rx="20" fill="url(#bg)" stroke="#7EE7F2" stroke-opacity="0.28"/>
  <path d="M34 50.6667C34 39.2528 43.2528 30 54.6667 30H78C92.3594 30 104 41.6406 104 56V56C104 70.3594 92.3594 82 78 82H56V98H34V50.6667Z" fill="#F5FEFF"/>
  <path d="M56 61H78C83.5228 61 88 56.5228 88 51V51C88 45.4772 83.5228 41 78 41H56V61Z" fill="#0891B2"/>
  <path d="M98 28L108 18" stroke="#38BDF8" stroke-width="6" stroke-linecap="round"/>
  <path d="M104 36H116" stroke="#67E8F9" stroke-width="6" stroke-linecap="round"/>
  <defs>
    <linearGradient id="bg" x1="18" y1="20" x2="111" y2="112" gradientUnits="userSpaceOnUse">
      <stop stop-color="#0A2230"/>
      <stop offset="1" stop-color="#0B3142"/>
    </linearGradient>
  </defs>
</svg>
